<svg width="12" height="12" viewBox="0 0 12 12" fill="none" xmlns="http://www.w3.org/2000/svg">
<path d="M6.94126 6.00012L11.1413 1.80679C11.2668 1.68125 11.3373 1.51099 11.3373 1.33346C11.3373 1.15592 11.2668 0.985659 11.1413 0.860124C11.0157 0.734588 10.8455 0.664062 10.6679 0.664062C10.4904 0.664062 10.3201 0.734588 10.1946 0.860124L6.00126 5.06012L1.80793 0.860124C1.68239 0.734588 1.51213 0.664063 1.33459 0.664063C1.15706 0.664063 0.986797 0.734588 0.861261 0.860124C0.735726 0.985659 0.6652 1.15592 0.6652 1.33346C0.6652 1.51099 0.735726 1.68125 0.861261 1.80679L5.06126 6.00012L0.861261 10.1935C0.798776 10.2554 0.74918 10.3292 0.715334 10.4104C0.681488 10.4916 0.664062 10.5788 0.664062 10.6668C0.664062 10.7548 0.681488 10.8419 0.715334 10.9232C0.74918 11.0044 0.798776 11.0781 0.861261 11.1401C0.923237 11.2026 0.996971 11.2522 1.07821 11.2861C1.15945 11.3199 1.24659 11.3373 1.33459 11.3373C1.4226 11.3373 1.50974 11.3199 1.59098 11.2861C1.67222 11.2522 1.74595 11.2026 1.80793 11.1401L6.00126 6.94012L10.1946 11.1401C10.2566 11.2026 10.3303 11.2522 10.4115 11.2861C10.4928 11.3199 10.5799 11.3373 10.6679 11.3373C10.7559 11.3373 10.8431 11.3199 10.9243 11.2861C11.0056 11.2522 11.0793 11.2026 11.1413 11.1401C11.2037 11.0781 11.2533 11.0044 11.2872 10.9232C11.321 10.8419 11.3385 10.7548 11.3385 10.6668C11.3385 10.5788 11.321 10.4916 11.2872 10.4104C11.2533 10.3292 11.2037 10.2554 11.1413 10.1935L6.94126 6.00012Z" fill="black" fill-opacity="0.2"/>
</svg>
