<svg width="34" height="34" viewBox="0 0 34 34" fill="none" xmlns="http://www.w3.org/2000/svg">
<path d="M17.0002 0.333984C13.7677 0.340126 10.6067 1.28617 7.90229 3.05688C5.19787 4.82759 3.06674 7.34655 1.76848 10.3069C0.470222 13.2673 0.0608711 16.5413 0.590288 19.7302C1.11971 22.9191 2.56504 25.8853 4.75024 28.2673V28.2673C6.31095 29.9591 8.20515 31.3092 10.3135 32.2327C12.4218 33.1561 14.6985 33.6329 17.0002 33.6329C19.3019 33.6329 21.5787 33.1561 23.687 32.2327C25.7953 31.3092 27.6895 29.9591 29.2502 28.2673V28.2673C31.4355 25.8853 32.8808 22.9191 33.4102 19.7302C33.9396 16.5413 33.5303 13.2673 32.232 10.3069C30.9338 7.34655 28.8026 4.82759 26.0982 3.05688C23.3938 1.28617 20.2328 0.340126 17.0002 0.333984V0.333984ZM17.0002 30.334C13.5477 30.3287 10.2318 28.9844 7.75024 26.584C8.50365 24.7499 9.7853 23.1811 11.4323 22.0771C13.0794 20.9731 15.0174 20.3837 17.0002 20.3837C18.9831 20.3837 20.9211 20.9731 22.5682 22.0771C24.2152 23.1811 25.4968 24.7499 26.2502 26.584C23.7687 28.9844 20.4528 30.3287 17.0002 30.334ZM13.6669 13.6673C13.6669 13.008 13.8624 12.3636 14.2287 11.8154C14.595 11.2673 15.1155 10.84 15.7246 10.5877C16.3337 10.3354 17.0039 10.2694 17.6505 10.398C18.2971 10.5267 18.8911 10.8441 19.3573 11.3103C19.8234 11.7765 20.1409 12.3704 20.2695 13.017C20.3981 13.6636 20.3321 14.3338 20.0798 14.9429C19.8276 15.552 19.4003 16.0726 18.8521 16.4389C18.304 16.8052 17.6595 17.0007 17.0002 17.0007C16.1162 17.0007 15.2683 16.6495 14.6432 16.0243C14.0181 15.3992 13.6669 14.5514 13.6669 13.6673ZM28.5169 23.6673C27.0278 21.1203 24.7359 19.139 22.0002 18.034C22.8489 17.0717 23.4018 15.8851 23.5927 14.6164C23.7836 13.3477 23.6044 12.0508 23.0765 10.8815C22.5486 9.71212 21.6946 8.71992 20.6168 8.02393C19.539 7.32794 18.2832 6.95773 17.0002 6.95773C15.7173 6.95773 14.4615 7.32794 13.3837 8.02393C12.3059 8.71992 11.4519 9.71212 10.924 10.8815C10.3961 12.0508 10.2169 13.3477 10.4078 14.6164C10.5987 15.8851 11.1516 17.0717 12.0002 18.034C9.26458 19.139 6.97269 21.1203 5.48358 23.6673C4.29682 21.6458 3.66978 19.3448 3.66691 17.0007C3.66691 13.4644 5.07167 10.073 7.57215 7.57256C10.0726 5.07208 13.464 3.66732 17.0002 3.66732C20.5365 3.66732 23.9279 5.07208 26.4283 7.57256C28.9288 10.073 30.3336 13.4644 30.3336 17.0007C30.3307 19.3448 29.7037 21.6458 28.5169 23.6673V23.6673Z" fill="white"/>
</svg>
