<svg width="28" height="34" viewBox="0 0 28 34" fill="none" xmlns="http://www.w3.org/2000/svg">
<path d="M23.9993 18.9673V13.6673C23.997 11.3059 23.1589 9.02143 21.6337 7.21861C20.1085 5.41578 17.9944 4.21089 15.666 3.81732V2.00065C15.666 1.55862 15.4904 1.1347 15.1779 0.82214C14.8653 0.509579 14.4414 0.333984 13.9993 0.333984C13.5573 0.333984 13.1334 0.509579 12.8208 0.82214C12.5083 1.1347 12.3327 1.55862 12.3327 2.00065V3.81732C10.0042 4.21089 7.89022 5.41578 6.36499 7.21861C4.83976 9.02143 4.00174 11.3059 3.99935 13.6673V18.9673C3.02677 19.3112 2.18435 19.9474 1.58758 20.7889C0.990813 21.6303 0.668915 22.6357 0.666016 23.6673V27.0007C0.666016 27.4427 0.841611 27.8666 1.15417 28.1792C1.46673 28.4917 1.89065 28.6673 2.33268 28.6673H7.56602C7.94982 30.0796 8.78768 31.3263 9.95034 32.2152C11.113 33.1041 12.5358 33.5857 13.9993 33.5857C15.4629 33.5857 16.8857 33.1041 18.0484 32.2152C19.211 31.3263 20.0489 30.0796 20.4327 28.6673H25.666C26.108 28.6673 26.532 28.4917 26.8445 28.1792C27.1571 27.8666 27.3327 27.4427 27.3327 27.0007V23.6673C27.3298 22.6357 27.0079 21.6303 26.4111 20.7889C25.8143 19.9474 24.9719 19.3112 23.9993 18.9673V18.9673ZM7.33268 13.6673C7.33268 11.8992 8.03506 10.2035 9.2853 8.95327C10.5355 7.70303 12.2312 7.00065 13.9993 7.00065C15.7675 7.00065 17.4632 7.70303 18.7134 8.95327C19.9636 10.2035 20.666 11.8992 20.666 13.6673V18.6673H7.33268V13.6673ZM13.9993 30.334C13.4176 30.3305 12.847 30.1748 12.3441 29.8824C11.8412 29.59 11.4235 29.1711 11.1327 28.6673H16.866C16.5752 29.1711 16.1575 29.59 15.6546 29.8824C15.1517 30.1748 14.5811 30.3305 13.9993 30.334ZM23.9993 25.334H3.99935V23.6673C3.99935 23.2253 4.17494 22.8014 4.4875 22.4888C4.80006 22.1762 5.22399 22.0007 5.66602 22.0007H22.3327C22.7747 22.0007 23.1986 22.1762 23.5112 22.4888C23.8238 22.8014 23.9993 23.2253 23.9993 23.6673V25.334Z" fill="white"/>
</svg>
