<svg width="20" height="20" viewBox="0 0 20 20" fill="none" xmlns="http://www.w3.org/2000/svg">
<path d="M17 0H7C6.20435 0 5.44129 0.316071 4.87868 0.87868C4.31607 1.44129 4 2.20435 4 3V4H3C2.20435 4 1.44129 4.31607 0.87868 4.87868C0.316071 5.44129 0 6.20435 0 7V17C0 17.7956 0.316071 18.5587 0.87868 19.1213C1.44129 19.6839 2.20435 20 3 20H13C13.7956 20 14.5587 19.6839 15.1213 19.1213C15.6839 18.5587 16 17.7956 16 17V16H17C17.7956 16 18.5587 15.6839 19.1213 15.1213C19.6839 14.5587 20 13.7956 20 13V3C20 2.20435 19.6839 1.44129 19.1213 0.87868C18.5587 0.316071 17.7956 0 17 0ZM14 17C14 17.2652 13.8946 17.5196 13.7071 17.7071C13.5196 17.8946 13.2652 18 13 18H3C2.73478 18 2.48043 17.8946 2.29289 17.7071C2.10536 17.5196 2 17.2652 2 17V10H14V17ZM14 8H2V7C2 6.73478 2.10536 6.48043 2.29289 6.29289C2.48043 6.10536 2.73478 6 3 6H13C13.2652 6 13.5196 6.10536 13.7071 6.29289C13.8946 6.48043 14 6.73478 14 7V8ZM18 13C18 13.2652 17.8946 13.5196 17.7071 13.7071C17.5196 13.8946 17.2652 14 17 14H16V7C15.9973 6.65886 15.9364 6.32067 15.82 6H18V13ZM18 4H6V3C6 2.73478 6.10536 2.48043 6.29289 2.29289C6.48043 2.10536 6.73478 2 7 2H17C17.2652 2 17.5196 2.10536 17.7071 2.29289C17.8946 2.48043 18 2.73478 18 3V4Z" fill="black"/>
</svg>
