<svg width="103" height="40" viewBox="0 0 103 40" fill="none" xmlns="http://www.w3.org/2000/svg">
<path d="M102.912 0.0884956C102.343 0.0442478 101.731 0 101.161 0C95.7335 0 86.3221 1.37168 78.793 18.4071H80.1938C78.0051 6.46018 69.9069 0 60.408 0C55.374 0 51.0841 1.59292 47.3196 4.9115C43.9928 7.83186 40.8411 12.2124 37.5142 18.6726C32.2614 28.9381 28.0591 34.1593 19.7858 34.1593C12.0378 34.1593 5.73438 27.7876 5.73438 19.9558C5.73438 12.1239 11.7752 5.75221 18.3413 5.75221C21.7556 5.75221 26.2206 6.9469 28.8908 11.0177L32.8304 4.9115C29.1972 1.76991 24.5572 0 19.7858 0C8.8861 0 0 8.9823 0 20C0 31.0177 8.8861 40 19.7858 40C25.2138 40 34.5376 38.8938 42.2418 20.885H40.7097C43.555 35.9734 53.4042 40 60.4518 40C73.759 40 80.0187 27.8319 83.3455 21.3717C88.6422 11.0619 92.8882 5.84071 101.161 5.84071C101.774 5.84071 102.387 5.88496 103 5.97345L102.912 0.0884956ZM46.4441 20.8407C45.7875 14.7788 48.9392 10.7522 52.4411 8.23009C54.8487 6.54867 57.4751 5.79646 60.4518 5.79646C68.1997 5.79646 74.5032 12.1681 74.5032 20C74.5032 27.8319 68.1997 34.2035 60.4518 34.2035C54.4985 34.1593 47.4509 30.177 46.4441 20.8407Z" fill="white"/>
</svg>
