<svg width="584" height="128" viewBox="0 0 584 128" fill="none" xmlns="http://www.w3.org/2000/svg">
<path d="M333.372 0.255019C331.501 0.0915453 329.61 0 327.7 0C310.159 0 279.67 4.45957 255.319 59.0075H259.886C252.8 20.735 226.558 0 195.827 0C179.536 0 165.665 5.12 153.418 15.6608C142.583 24.9853 132.501 38.9852 121.693 59.7072C104.492 92.6897 90.8507 109.429 64.0325 109.429C38.9678 109.429 18.5745 89.0475 18.5745 63.9967C18.5745 38.946 38.1827 18.5641 59.3349 18.5641C70.3592 18.5641 84.8446 22.3371 93.4481 35.3954L106.213 15.8439C94.5473 5.63004 79.5647 0 64.0391 0C28.7286 0 0 28.7125 0 64.0033C0 99.294 28.7286 128.007 64.0391 128.007C81.5798 128.007 111.807 124.456 136.78 66.815H131.906C141.065 115.19 173.078 128.007 195.833 128.007C238.995 128.007 259.238 89.0213 270.053 68.2994C287.24 35.3103 300.882 18.5706 327.7 18.5706C329.708 18.5706 331.691 18.7014 333.634 18.9564L333.372 0.255019ZM150.454 66.7954C148.341 47.342 158.599 34.493 169.892 26.3651C177.75 20.9377 186.124 18.5641 195.827 18.5641C220.892 18.5641 241.285 38.946 241.285 63.9967C241.285 89.0475 220.892 109.429 195.827 109.429C176.507 109.436 153.692 96.5934 150.454 66.7954ZM367.243 28.6275C366.066 26.0643 363.501 24.3314 360.518 24.3314C356.356 24.3314 353.164 27.5878 353.164 31.9559C353.164 36.3239 356.356 39.5803 360.518 39.5803C363.501 39.5803 366.066 37.8475 367.243 35.2842L373.557 37.2263C371.548 42.4247 366.55 45.8904 360.518 45.8904C356.566 45.8904 353.236 44.576 350.599 41.9408C347.962 39.2403 346.647 35.9119 346.647 31.9624C346.647 28.0129 347.962 24.6845 350.599 22.0493C353.236 19.3488 356.566 18.0279 360.518 18.0279C366.55 18.0279 371.542 21.4935 373.557 26.692L367.243 28.6275ZM377.594 60.7207V18.7799H383.907V20.8593C386.197 18.9891 388.834 18.0148 391.883 18.0148C395.56 18.0148 398.609 19.3291 401.036 22.0363C403.463 24.6715 404.713 27.9998 404.713 31.9493C404.713 35.8988 403.463 39.2272 401.036 41.9278C398.609 44.563 395.56 45.8773 391.883 45.8773C388.834 45.8773 386.197 44.9095 383.907 43.0328V60.7076H377.594V60.7207ZM391.117 24.3249C389.109 24.3249 387.44 25.09 386.053 26.5416C384.738 27.9998 384.045 29.798 384.045 31.9493C384.045 34.1006 384.738 35.9708 386.053 37.4224C387.44 38.8806 389.102 39.5737 391.117 39.5737C393.132 39.5737 394.794 38.8806 396.109 37.4224C397.424 35.9642 398.118 34.0941 398.118 31.9493C398.118 29.8045 397.424 27.9998 396.109 26.5416C394.788 25.09 393.126 24.3249 391.117 24.3249ZM414.965 34.3099C415.868 37.7036 418.851 40.0642 422.666 40.0642C425.165 40.0642 427.246 39.1618 428.835 37.2916L434.94 39.0964C432.512 43.2552 428.005 45.8904 422.666 45.8904C418.577 45.8904 415.174 44.576 412.472 41.9408C409.77 39.2403 408.449 35.9119 408.449 31.9624C408.449 28.0129 409.764 24.6845 412.4 22.0493C415.037 19.3488 418.295 18.0279 422.247 18.0279C426.133 18.0279 429.392 19.3422 432.028 22.0493C434.73 24.7499 436.052 28.0129 436.052 31.9624C436.052 32.7928 435.98 33.5579 435.843 34.3164H414.965V34.3099ZM429.529 29.3861C428.489 26.0577 425.577 23.841 422.175 23.841C418.845 23.841 415.933 26.1297 415.031 29.3861H429.529ZM438.519 54.0641V39.0899H442.752C443.792 37.7036 444.348 34.7938 444.348 30.3538V18.7799H466.331V39.0899H471.048V54.0641H464.807V45.1253H444.832V54.0641H438.519ZM460.083 39.0899V24.8153H450.655V30.8442C450.655 34.1006 450.171 36.8732 449.268 39.0899H460.083ZM494.432 20.9312V18.7799H500.673V45.1188H494.432V43.0394C492.142 44.9095 489.505 45.8838 486.456 45.8838C482.779 45.8838 479.73 44.5695 477.303 41.9343C474.876 39.2337 473.626 35.9054 473.626 31.9559C473.626 28.0063 474.876 24.678 477.303 22.0428C479.73 19.3422 482.779 18.0214 486.456 18.0214C489.577 18.0214 492.214 18.9891 494.432 20.9312ZM487.222 24.3249C485.213 24.3249 483.545 25.09 482.158 26.5416C480.843 27.9998 480.149 29.798 480.149 31.9493C480.149 34.1006 480.843 35.8988 482.158 37.357C483.545 38.8152 485.207 39.5737 487.222 39.5737C489.237 39.5737 490.899 38.8087 492.214 37.357C493.601 35.8988 494.294 34.1006 494.294 31.9493C494.294 29.798 493.601 27.9998 492.214 26.5416C490.899 25.09 489.23 24.3249 487.222 24.3249ZM346.647 96.0311C346.647 92.0815 347.962 88.7532 350.599 86.118C353.301 83.4174 356.631 82.0965 360.583 82.0965C364.535 82.0965 367.865 83.4109 370.502 86.118C373.204 88.7532 374.525 92.0815 374.525 96.0311C374.525 99.9806 373.21 103.309 370.502 106.009C367.865 108.645 364.535 109.959 360.583 109.959C356.631 109.959 353.301 108.645 350.599 106.009C347.962 103.315 346.647 99.9871 346.647 96.0311ZM353.164 96.0311C353.164 98.1824 353.857 99.9806 355.316 101.439C356.775 102.897 358.509 103.655 360.589 103.655C362.67 103.655 364.404 102.962 365.791 101.504C367.25 100.046 367.943 98.1758 367.943 96.0311C367.943 93.8863 367.25 92.0815 365.791 90.6233C364.404 89.1652 362.67 88.4066 360.589 88.4066C358.509 88.4066 356.775 89.1717 355.316 90.6233C353.857 92.0815 353.164 93.8863 353.164 96.0311ZM391.438 67.5474C395.874 66.7169 397.608 64.7749 397.608 60.688H404.333C404.333 67.6912 401.003 71.9154 394.415 73.3736C387.754 74.7598 384.634 79.0559 384.287 86.7523C386.367 83.6332 389.416 82.1096 393.374 82.1096C397.189 82.1096 400.447 83.4959 403.084 86.1965C405.72 88.8971 407.035 92.16 407.035 96.1095C407.035 100.059 405.72 103.387 403.084 106.023C400.519 108.658 397.261 109.972 393.303 109.972C388.867 109.972 385.19 108.167 382.278 104.564C379.432 100.961 377.98 95.6256 377.98 88.4851C377.986 76.2115 382.494 69.2802 391.438 67.5474ZM386.171 96.0311C386.171 98.1824 386.865 99.9806 388.18 101.439C389.567 102.897 391.301 103.655 393.309 103.655C395.318 103.655 397.051 102.89 398.373 101.439C399.76 99.9806 400.454 98.1824 400.454 96.0311C400.454 93.8797 399.76 92.0815 398.373 90.6233C397.058 89.1652 395.324 88.4066 393.309 88.4066C391.294 88.4066 389.567 89.1717 388.18 90.6233C386.865 92.0815 386.171 93.8863 386.171 96.0311ZM408.22 82.8616H414.808L421.468 100.608L428.404 82.8616H434.92L422.299 114.536C419.525 121.396 415.364 124.796 409.888 124.796H409.195V118.767H409.888C412.871 118.767 415.227 116.688 416.895 112.457L418.354 108.645L408.22 82.8616ZM438.021 82.8616H444.538V91.3165C444.538 93.2585 445.997 94.2263 448.974 94.2263C449.739 94.2263 451.748 94.089 455.078 93.7424V82.8616H461.391V109.201H455.078V99.7059C452.513 100.053 450.361 100.19 448.627 100.19C442.176 100.19 438.015 96.5149 438.015 91.3165V82.8616H438.021ZM472.906 98.3916C473.809 101.785 476.793 104.146 480.607 104.146C483.106 104.146 485.187 103.244 486.777 101.373L492.881 103.178C490.454 107.337 485.946 109.972 480.607 109.972C476.518 109.972 473.116 108.658 470.414 106.023C467.712 103.322 466.39 99.9937 466.39 96.0441C466.39 92.0946 467.705 88.7663 470.342 86.1311C472.978 83.4305 476.237 82.1096 480.188 82.1096C484.075 82.1096 487.333 83.424 489.97 86.1311C492.672 88.8317 493.993 92.0946 493.993 96.0441C493.993 96.8746 493.921 97.6396 493.784 98.3982H472.906V98.3916ZM487.47 93.4678C486.43 90.1395 483.519 87.9228 480.116 87.9228C476.786 87.9228 473.875 90.2114 472.972 93.4678H487.47ZM505.057 109.207H498.743V82.8681H505.057V92.8466H517.331V82.8681H523.644V109.207H517.331V98.8101H505.057V109.207ZM535.166 109.207H529.965V82.8681H536.278V98.7382L549.664 82.8681H554.866V109.207H548.552V93.5397L535.166 109.207ZM559.59 109.207L565.903 100.196C562.364 98.882 560.08 95.691 560.08 91.8069C560.08 89.2436 560.983 87.1642 562.717 85.4314C564.451 83.6986 566.669 82.8681 569.305 82.8681H584.007V109.207H577.693V100.752H572.91L566.943 109.207H559.59ZM577.686 94.7167V88.8971H569.364C565.759 88.6224 565.759 94.9979 569.364 94.7167H577.686Z" fill="black"/>
</svg>
